PathFileType	4	(X/Y/Z)	/Users/itak/Documents/Research/Walk-IL/dataset/trc/00007_00004.trc
DataRate	CameraRate	NumFrames	NumMarkers	Units	OrigDataRate	OrigDataStartFrame	OrigNumFrames
100.000000	100.000000	4	53	mm	100.000000	145	580
Frame#	Time	RPSI			LPSI			L3			STRN			T10			C7			CLAV			RBAK			LBAK			LSHO			LUPA			LAEL			LAOL			LWTS			LWPS			LFRA			LIFD			LHPS			LHTS			RSHO			RUPA			RAEL			RAOL			RWTS			RWPS			RFRA			RIFD			RHTS			RHPS			RBHD			LFHD			RFHD			LBHD			LHIP			RHIP			RASI			LASI			LKNE			LTHI			LANK			LTIP			LTOE			LMT1			LMT5			LHEE			RKNE			RTHI			RANK			RTIP			RTOE			RMT1			RMT5			RHEE			
		X1	Y1	Z1	X2	Y2	Z2	X3	Y3	Z3	X4	Y4	Z4	X5	Y5	Z5	X6	Y6	Z6	X7	Y7	Z7	X8	Y8	Z8	X9	Y9	Z9	X10	Y10	Z10	X11	Y11	Z11	X12	Y12	Z12	X13	Y13	Z13	X14	Y14	Z14	X15	Y15	Z15	X16	Y16	Z16	X17	Y17	Z17	X18	Y18	Z18	X19	Y19	Z19	X20	Y20	Z20	X21	Y21	Z21	X22	Y22	Z22	X23	Y23	Z23	X24	Y24	Z24	X25	Y25	Z25	X26	Y26	Z26	X27	Y27	Z27	X28	Y28	Z28	X29	Y29	Z29	X30	Y30	Z30	X31	Y31	Z31	X32	Y32	Z32	X33	Y33	Z33	X34	Y34	Z34	X35	Y35	Z35	X36	Y36	Z36	X37	Y37	Z37	X38	Y38	Z38	X39	Y39	Z39	X40	Y40	Z40	X41	Y41	Z41	X42	Y42	Z42	X43	Y43	Z43	X44	Y44	Z44	X45	Y45	Z45	X46	Y46	Z46	X47	Y47	Z47	X48	Y48	Z48	X49	Y49	Z49	X50	Y50	Z50	X51	Y51	Z51	X52	Y52	Z52	X53	Y53	Z53	

146	1.45	-1207.583618164062	1070.597778320312	-134.9490966796875	-1221.157470703125	1068.076293945312	-298.5028686523438	-1217.431518554688	1136.198608398438	-223.7061920166016	-986.6998291015625	1317.736694335938	-229.4427337646484	-1237.066528320312	1277.057983398438	-223.97509765625	-1182.5830078125	1542.983032226562	-237.1970520019531	-1025.595336914062	1444.939575195312	-233.6222839355469	-1236.069213867188	1408.166381835938	-155.6068878173828	-1201.49951171875	1501.917358398438	-335.0972595214844	-1098.4716796875	1504.201171875	-409.2632446289062	-1133.930908203125	1381.271728515625	-486.9014587402344	-1146.21337890625	1164.31201171875	-513.3434448242188	-1202.716796875	1154.251342773438	-423.9107055664062	-1070.353515625	907.5594482421875	-459.85107421875	-1147.63525390625	896.4844360351562	-501.0057373046875	-1138.897338867188	1047.816528320312	-519.8696899414062	-1049.33984375	723.9623413085938	-440.6258544921875	-1117.769897460938	805.79833984375	-500.6122436523438	-1051.744506835938	813.9668579101562	-474.4065551757812	-1101.862426757812	1527.765991210938	-63.61484527587891	-1115.702880859375	1456.274658203125	9.945193290710449	-1158.056030273438	1188.152221679688	32.16771697998047	-1164.610229492188	1160.960327148438	-64.57859802246094	-1039.40869140625	923.9300537109375	-3.066284894943237	-1104.347900390625	912.4143676757812	63.06810760498047	-1147.06201171875	1112.232421875	46.65229415893555	-1032.86376953125	738.4035034179688	-18.83379936218262	-1012.341003417969	812.0985107421875	11.84760570526123	-1068.191162109375	810.6211547851562	61.64268493652344	-1137.978393554688	1718.193725585938	-303.0357055664062	-948.8595581054688	1738.656005859375	-195.2276153564453	-955.7578125	1735.31201171875	-293.7193603515625	-1119.648315429688	1719.188720703125	-159.5253601074219	-1135.27587890625	968.2151489257812	-414.6955261230469	-1092.160888671875	958.5729370117188	-40.34310913085938	-992.1892700195312	988.271484375	-122.1348342895508	-1013.514465332031	1007.348327636719	-356.9879455566406	-1080.883422851562	520.4566040039062	-387.0351867675781	-1112.619262695312	658.7268676757812	-416.173828125	-1212.465087890625	42.46185684204102	-403.8190307617188	-1178.406860351562	292.0325317382812	-411.110107421875	-994.033203125	42.55714797973633	-337.8370666503906	-1053.12451171875	50.77913284301758	-320.7055969238281	-1087.771118164062	40.27754974365234	-421.1566162109375	-1282.538330078125	50.03024673461914	-350.6739196777344	-1104.503051757812	522.7286987304688	-104.0462493896484	-1073.09716796875	788.8731689453125	-50.81211853027344	-1232.137573242188	43.98899459838867	-144.4909515380859	-1134.357666015625	400.1036376953125	-106.1817245483398	-999.6317749023438	46.14150619506836	-182.268310546875	-1061.753540039062	51.42415618896484	-212.6828460693359	-1082.681518554688	45.51972579956055	-117.9486846923828	-1285.73095703125	44.22654342651367	-191.0226898193359	
147	1.46	-1206.325805664062	1070.535888671875	-133.9377288818359	-1219.83447265625	1068.060913085938	-297.4763793945312	-1215.992065429688	1136.188598632812	-222.6091766357422	-984.9096069335938	1317.472412109375	-228.2158508300781	-1235.393188476562	1277.026733398438	-222.9034423828125	-1180.633544921875	1542.867431640625	-236.21142578125	-1023.710693359375	1444.696899414062	-232.4954833984375	-1234.259765625	1408.138061523438	-154.5547943115234	-1199.535278320312	1501.79931640625	-334.0963439941406	-1096.485107421875	1503.983154296875	-408.2724609375	-1132.168701171875	1381.042846679688	-485.7197875976562	-1144.961791992188	1164.184692382812	-512.2099609375	-1201.30712890625	1154.181274414062	-422.65966796875	-1069.479858398438	907.3544921875	-459.04443359375	-1146.782836914062	896.348876953125	-499.9598083496094	-1137.957275390625	1047.688720703125	-518.8081665039062	-1048.68505859375	723.7247314453125	-439.7805480957031	-1117.058715820312	805.6181640625	-499.6439208984375	-1050.97900390625	813.7081298828125	-473.6026306152344	-1100.020629882812	1527.7109375	-62.59156799316406	-1113.942260742188	1456.27685546875	11.02638053894043	-1156.36279296875	1188.177368164062	33.53683853149414	-1162.87939453125	1160.916748046875	-63.18196105957031	-1037.499755859375	924.017333984375	-1.468659639358521	-1102.412475585938	912.496337890625	64.67144012451172	-1145.330810546875	1112.264038085938	48.09011077880859	-1030.85009765625	738.5195922851562	-17.07128143310547	-1010.357971191406	812.290283203125	13.53478145599365	-1066.160888671875	810.75146484375	63.30410003662109	-1135.954345703125	1717.996948242188	-302.0350952148438	-946.7678833007812	1738.386962890625	-194.3131408691406	-953.7385864257812	1734.996337890625	-292.7769165039062	-1117.608032226562	1719.06640625	-158.5544281005859	-1133.808715820312	968.27197265625	-413.7444152832031	-1091.115478515625	958.2451171875	-39.2360954284668	-990.8350830078125	988.004150390625	-120.8486480712891	-1012.242065429688	1007.196350097656	-355.6687622070312	-1075.4873046875	520.7407836914062	-386.4005737304688	-1108.3974609375	658.7682495117188	-415.323974609375	-1212.547729492188	42.95146942138672	-403.6202392578125	-1175.219482421875	292.1236877441406	-410.7884521484375	-994.0708618164062	42.67069244384766	-337.9661560058594	-1053.198852539062	50.87005615234375	-320.7102661132812	-1087.769653320312	40.42912292480469	-421.0574340820312	-1282.426635742188	50.69565200805664	-350.4046020507812	-1104.276123046875	522.4614868164062	-103.0564346313477	-1072.25048828125	788.5770874023438	-49.73073959350586	-1232.169677734375	43.92404174804688	-144.4064636230469	-1134.280029296875	399.8424987792969	-105.3530807495117	-999.6839599609375	46.14318466186523	-182.2691955566406	-1061.790161132812	51.44718170166016	-212.6077117919922	-1082.711791992188	45.47101974487305	-117.8436660766602	-1285.819946289062	44.20039367675781	-190.9161834716797	
148	1.47	-1205.012573242188	1070.453491210938	-132.9364013671875	-1218.4990234375	1067.9755859375	-296.4462280273438	-1214.523681640625	1136.14208984375	-221.5252532958984	-983.0853881835938	1317.16845703125	-227.02734375	-1233.687377929688	1276.962890625	-221.8481903076172	-1178.654907226562	1542.726318359375	-235.2513885498047	-1021.810729980469	1444.418579101562	-231.4002075195312	-1232.413696289062	1408.076171875	-153.5273895263672	-1197.547119140625	1501.651489257812	-333.1221618652344	-1094.477783203125	1503.7578125	-407.3669128417969	-1130.381713867188	1380.774658203125	-484.5767517089844	-1143.7001953125	1164.01416015625	-511.0991821289062	-1199.856811523438	1154.067260742188	-421.4183959960938	-1068.534545898438	907.132568359375	-458.2767639160156	-1145.883422851562	896.17333984375	-498.928955078125	-1136.983276367188	1047.519653320312	-517.7681884765625	-1047.988037109375	723.432373046875	-438.9703979492188	-1116.292236328125	805.4041748046875	-498.7039184570312	-1050.143676757812	813.4122924804688	-472.8489990234375	-1098.150634765625	1527.616333007812	-61.59427261352539	-1112.153686523438	1456.244018554688	12.07822227478027	-1154.661499023438	1188.17724609375	34.90154647827148	-1161.120849609375	1160.827758789062	-61.7838020324707	-1035.536254882812	924.0940551757812	0.1692936718463898	-1100.440185546875	912.5580444335938	66.29574584960938	-1143.584106445312	1112.265991210938	49.53411102294922	-1028.712524414062	738.6259155273438	-15.26582813262939	-1008.291015625	812.4849853515625	15.26535892486572	-1064.0546875	810.8631591796875	65.00245666503906	-1133.89501953125	1717.763671875	-301.0704650878906	-944.65673828125	1738.092651367188	-193.4110107421875	-951.6815795898438	1734.651123046875	-291.85546875	-1115.554443359375	1718.907958984375	-157.606689453125	-1132.349853515625	968.2537841796875	-412.8078308105469	-1089.954223632812	957.9190063476562	-38.14992523193359	-989.42236328125	987.7171020507812	-119.6152572631836	-1010.970520019531	1007.019958496094	-354.39794921875	-1069.486328125	520.9791870117188	-385.787109375	-1103.665771484375	658.7721557617188	-414.4483642578125	-1212.585815429688	43.6333122253418	-403.3650817871094	-1171.681518554688	292.2767333984375	-410.5020141601562	-994.0958251953125	42.78478240966797	-338.1272888183594	-1053.257080078125	50.9846305847168	-320.729736328125	-1087.773071289062	40.63983917236328	-420.9504699707031	-1282.301879882812	51.65231323242188	-350.0880737304688	-1103.959350585938	522.2096557617188	-102.0888137817383	-1071.336791992188	788.2813720703125	-48.66779327392578	-1232.201904296875	43.85951232910156	-144.3239593505859	-1134.149169921875	399.58642578125	-104.5494995117188	-999.7345581054688	46.14446258544922	-182.2705078125	-1061.826538085938	51.46664810180664	-212.5370330810547	-1082.737670898438	45.42644500732422	-117.748046875	-1285.914672851562	44.18923187255859	-190.8175201416016	
149	1.48	-1203.640869140625	1070.34716796875	-131.9443206787109	-1217.147827148438	1067.81201171875	-295.4140930175781	-1213.0263671875	1136.057495117188	-220.4571533203125	-981.2320556640625	1316.823364257812	-225.8876342773438	-1231.948974609375	1276.868286132812	-220.8109436035156	-1176.643432617188	1542.563354492188	-234.3130187988281	-1019.893737792969	1444.1025390625	-230.3444671630859	-1230.530029296875	1407.983642578125	-152.5247344970703	-1195.53857421875	1501.476440429688	-332.1736755371094	-1092.455322265625	1503.524047851562	-406.5478820800781	-1128.568115234375	1380.466674804688	-483.4761047363281	-1142.42822265625	1163.79833984375	-510.0165405273438	-1198.367309570312	1153.907104492188	-420.1947937011719	-1067.51171875	906.8860473632812	-457.5485534667969	-1144.937255859375	895.9557495117188	-497.9183959960938	-1135.965942382812	1047.305541992188	-516.7543334960938	-1047.225341796875	723.0836181640625	-438.2182312011719	-1115.470336914062	805.1539306640625	-497.7980041503906	-1049.237060546875	813.0763549804688	-472.152587890625	-1096.237548828125	1527.478637695312	-60.62796020507812	-1110.321533203125	1456.173217773438	13.09779739379883	-1152.945556640625	1188.149291992188	36.25912475585938	-1159.3408203125	1160.688720703125	-60.38694000244141	-1033.516723632812	924.1554565429688	1.839402556419373	-1098.428588867188	912.5957641601562	67.93447875976562	-1141.816284179688	1112.2353515625	50.98208618164062	-1026.4482421875	738.7085571289062	-13.42556667327881	-1006.142028808594	812.6700439453125	17.029296875	-1061.874633789062	810.9502563476562	66.73329925537109	-1131.796264648438	1717.491455078125	-300.1456298828125	-942.5294189453125	1737.776733398438	-192.5209503173828	-949.5848999023438	1734.279296875	-290.956298828125	-1113.482177734375	1718.708129882812	-156.6858367919922	-1130.89697265625	968.1533813476562	-411.8883056640625	-1088.671997070312	957.59521484375	-37.08512878417969	-987.9547119140625	987.408203125	-118.4440231323242	-1009.689453125	1006.819519042969	-353.18798828125	-1062.9111328125	521.1694946289062	-385.1913146972656	-1098.450439453125	658.7474365234375	-413.5513610839844	-1212.557495117188	44.53672409057617	-403.0508117675781	-1167.799682617188	292.5186462402344	-410.2437438964844	-994.0947265625	42.89553451538086	-338.3034362792969	-1053.275756835938	51.13120651245117	-320.751953125	-1087.7666015625	40.92719650268555	-420.8285217285156	-1282.147216796875	52.95503616333008	-349.7232971191406	-1103.552001953125	521.9637451171875	-101.1570434570312	-1070.348510742188	787.9818115234375	-47.62915802001953	-1232.232543945312	43.79504013061523	-144.2455596923828	-1133.956909179688	399.3426513671875	-103.7829818725586	-999.7830200195312	46.14477157592773	-182.2723541259766	-1061.863891601562	51.48322296142578	-212.4725799560547	-1082.758544921875	45.38677597045898	-117.6634674072266	-1286.0078125	44.19169998168945	-190.7316436767578	
